<?xml version="1.0" encoding="utf-8"?>
<!-- Generator: Adobe Illustrator 19.0.0, SVG Export Plug-In . SVG Version: 6.00 Build 0)  -->
<svg version="1.1" id="レイヤー_1" xmlns="http://www.w3.org/2000/svg" xmlns:xlink="http://www.w3.org/1999/xlink" x="0px"
	 y="0px" viewBox="0 0 225 25" style="enable-background:new 0 0 225 25;" xml:space="preserve">
<style type="text/css">
	.st0{fill:#50008B;}
</style>
<path id="XMLID_2_" class="st0" d="M1.1,18.4l2.7-7.8h3.6l-2.7,7.8H1.1z M9.1,6.8c0.5,0.5,1.3,1.3,2.2,2.4h-7l0.6-1.8
	c0.1-0.2,0.2-0.4,0.4-0.6c0.2-0.2,0.4-0.4,0.6-0.5C6.1,6.2,6.3,6.1,6.6,6c0.3-0.1,0.6-0.1,0.8-0.1h0.2c0.1,0,0.1,0,0.1,0
	C8.1,6,8.6,6.3,9.1,6.8z M12,16.4c-1.1-1.2-2.6-3.2-4.6-5.8h5c0.3,0.4,0.7,0.9,1.1,1.4c0.4,0.5,0.8,1.1,1.2,1.6l1-3.1h3.6l-2.1,6.2
	c-0.1,0.2-0.2,0.4-0.4,0.6c-0.2,0.2-0.4,0.3-0.6,0.5c-0.2,0.1-0.5,0.3-0.8,0.4c-0.3,0.1-0.6,0.1-0.8,0.1h-0.3c-0.1,0-0.1,0-0.1,0
	C13.8,18.3,13.1,17.7,12,16.4z M19.8,9.2h-3.6l1.2-3.4h3.6L19.8,9.2z"/>
<path id="XMLID_32_" class="st0" d="M33.9,18.4l2.7-7.8h3.6l-2.7,7.8H33.9z M41.9,6.8c0.5,0.5,1.3,1.3,2.2,2.4h-7l0.6-1.8
	c0.1-0.2,0.2-0.4,0.4-0.6c0.2-0.2,0.4-0.4,0.6-0.5c0.2-0.1,0.5-0.3,0.8-0.4c0.3-0.1,0.6-0.1,0.8-0.1h0.2c0.1,0,0.1,0,0.1,0
	C40.9,6,41.3,6.3,41.9,6.8z M44.7,16.4c-1.1-1.2-2.6-3.2-4.6-5.8h5c0.3,0.4,0.7,0.9,1.1,1.4c0.4,0.5,0.8,1.1,1.2,1.6l1-3.1h3.6
	l-2.1,6.2c-0.1,0.2-0.2,0.4-0.4,0.6c-0.2,0.2-0.4,0.3-0.6,0.5c-0.2,0.1-0.5,0.3-0.8,0.4c-0.3,0.1-0.6,0.1-0.8,0.1h-0.3
	c-0.1,0-0.1,0-0.1,0C46.6,18.3,45.8,17.7,44.7,16.4z M52.5,9.2h-3.6l1.2-3.4h3.6L52.5,9.2z"/>
<path id="XMLID_3_" class="st0" d="M30.3,13.3l0.9-2.7h3.4l-2.7,7.8h-3.4l0.7-2.1h-6.2l-2.4,2.1h-4.5l8.5-7.8h4.7l-3.1,2.7H30.3z
	 M35.1,9.2h-8.9l2.7-2.5c0.5-0.3,1.1-0.6,1.8-0.7c0.7-0.1,1.4-0.2,2.1-0.2c0.5,0,1,0,1.3,0.1c0.4,0.1,0.7,0.2,0.9,0.5
	c0.2,0.2,0.4,0.5,0.4,0.9c0,0.4,0,0.8-0.2,1.4L35.1,9.2z"/>
<path id="XMLID_5_" class="st0" d="M62.8,13.3l0.9-2.7h3.4l-2.7,7.8H61l0.7-2.1h-6.2l-2.4,2.1h-4.5l8.5-7.8H62l-3.1,2.7H62.8z
	 M67.6,9.2h-8.9l2.7-2.5c0.5-0.3,1.1-0.6,1.8-0.7c0.7-0.1,1.4-0.2,2.1-0.2c0.5,0,1,0,1.3,0.1c0.4,0.1,0.7,0.2,0.9,0.5
	C67.8,6.7,68,7,68,7.3c0,0.4,0,0.8-0.2,1.4L67.6,9.2z"/>
<path id="XMLID_6_" class="st0" d="M78.4,15c-0.2,0-0.3,0-0.5-0.1c-0.1-0.1-0.3-0.2-0.3-0.3c-0.1-0.1-0.1-0.3-0.2-0.5
	c0-0.2,0-0.3,0.1-0.5l0.2-0.7h9.4c0.2,0,0.3,0,0.5,0.1c0.1,0.1,0.3,0.2,0.3,0.3c0.1,0.1,0.1,0.3,0.2,0.5c0,0.2,0,0.3-0.1,0.5
	L87.2,17c-0.1,0.2-0.2,0.4-0.3,0.5c-0.1,0.2-0.3,0.3-0.5,0.5c-0.2,0.1-0.4,0.2-0.6,0.3c-0.2,0.1-0.4,0.1-0.6,0.1H74.8l0.8-2.4h9.3
	l0.3-1H78.4z M78.4,10.9c0.1-0.2,0.2-0.4,0.3-0.5c0.1-0.2,0.3-0.3,0.5-0.5c0.2-0.1,0.4-0.2,0.6-0.3c0.2-0.1,0.4-0.1,0.6-0.1h9.4
	l-0.8,2.4H78.1L78.4,10.9z"/>
<path id="XMLID_7_" class="st0" d="M100,12.8l-0.2,0.7c-0.1,0.2-0.2,0.4-0.3,0.5c-0.1,0.2-0.3,0.3-0.5,0.5c-0.2,0.1-0.4,0.2-0.6,0.3
	C98.2,15,98.1,15,97.9,15h-6.4l-1.2,3.4h-2.6l1.9-5.6H100z M90.9,9.5h8.9c0.2,0,0.3,0,0.5,0.1c0.1,0.1,0.3,0.2,0.3,0.3
	c0.1,0.1,0.1,0.3,0.2,0.5c0,0.2,0,0.3-0.1,0.5l-0.3,1H90L90.9,9.5z"/>
<path id="XMLID_8_" class="st0" d="M110.5,17.5c-0.1,0.2-0.3,0.3-0.5,0.5c-0.2,0.1-0.4,0.2-0.6,0.3c-0.2,0.1-0.4,0.1-0.5,0.1h-8.2
	c-0.2,0-0.3,0-0.5-0.1c-0.1-0.1-0.3-0.2-0.3-0.3c-0.1-0.1-0.1-0.3-0.2-0.5c0-0.2,0-0.3,0.1-0.5l1.4-4.1h2.6l-1.1,3.2h5.9l1.1-3.2
	h2.5l-1.4,4.1C110.8,17.1,110.7,17.3,110.5,17.5z M112.4,9.6c0.1,0.1,0.3,0.2,0.3,0.3c0.1,0.1,0.1,0.3,0.2,0.5c0,0.2,0,0.3-0.1,0.5
	l-0.3,1h-11.1l0.3-1c0.1-0.2,0.2-0.4,0.3-0.5c0.1-0.2,0.3-0.3,0.5-0.5c0.2-0.1,0.4-0.2,0.6-0.3c0.2-0.1,0.4-0.1,0.6-0.1h8.2
	C112.2,9.5,112.3,9.5,112.4,9.6z"/>
<path id="XMLID_9_" class="st0" d="M123.7,12.8l-0.2,0.7c-0.1,0.2-0.2,0.4-0.3,0.5c-0.1,0.2-0.3,0.3-0.5,0.5
	c-0.2,0.1-0.4,0.2-0.6,0.3c-0.2,0.1-0.4,0.1-0.5,0.1h-0.7l1.3,3.4h-2.7L118,15h-2.8l-1.2,3.4h-2.6l1.9-5.6H123.7z M114.5,9.5h8.9
	c0.2,0,0.3,0,0.5,0.1c0.1,0.1,0.3,0.2,0.3,0.3c0.1,0.1,0.1,0.3,0.2,0.5c0,0.2,0,0.3-0.1,0.5l-0.3,1h-10.3L114.5,9.5z"/>
<path id="XMLID_10_" class="st0" d="M126,9.5h10.6l-0.8,2.4h-10.6L126,9.5z M127,18.4l1.9-5.6h2.6l-1.9,5.6H127z"/>
<path id="XMLID_11_" class="st0" d="M137.3,15c-0.2,0-0.3,0-0.5-0.1c-0.1-0.1-0.3-0.2-0.3-0.3c-0.1-0.1-0.1-0.3-0.2-0.5
	c0-0.2,0-0.3,0.1-0.5l0.2-0.7h9.4c0.2,0,0.3,0,0.5,0.1c0.1,0.1,0.3,0.2,0.3,0.3c0.1,0.1,0.1,0.3,0.2,0.5c0,0.2,0,0.3-0.1,0.5L146,17
	c-0.1,0.2-0.2,0.4-0.3,0.5c-0.1,0.2-0.3,0.3-0.5,0.5c-0.2,0.1-0.4,0.2-0.6,0.3c-0.2,0.1-0.4,0.1-0.6,0.1h-9.4l0.8-2.4h8.3l0.3-1
	H137.3z M137.3,10.9c0.1-0.2,0.2-0.4,0.3-0.5c0.1-0.2,0.3-0.3,0.5-0.5c0.2-0.1,0.4-0.2,0.6-0.3c0.2-0.1,0.4-0.1,0.6-0.1h9.4
	l-0.8,2.4h-10.9L137.3,10.9z"/>
<path id="XMLID_12_" class="st0" d="M154,18.3c-0.1-0.1-0.3-0.2-0.3-0.3c-0.1-0.1-0.1-0.3-0.2-0.5c0-0.2,0-0.3,0.1-0.5l1.4-4.1h2.6
	l-1.1,3.2h5.9l0.3-0.9h2.6l-0.7,1.9c-0.1,0.2-0.2,0.4-0.3,0.5c-0.1,0.2-0.3,0.3-0.5,0.5c-0.2,0.1-0.4,0.2-0.6,0.3
	c-0.2,0.1-0.4,0.1-0.6,0.1h-8.2C154.3,18.4,154.2,18.4,154,18.3z M155.6,10.9c0.1-0.2,0.2-0.4,0.3-0.5c0.1-0.2,0.3-0.3,0.5-0.5
	c0.2-0.1,0.4-0.2,0.6-0.3c0.2-0.1,0.4-0.1,0.6-0.1h8.2c0.2,0,0.3,0,0.5,0.1c0.1,0.1,0.3,0.2,0.3,0.3c0.1,0.1,0.1,0.3,0.2,0.5
	c0,0.2,0,0.3-0.1,0.5l-0.3,1h-11L155.6,10.9z M163.3,13.2l0.1-0.4h2.6l-0.1,0.4H163.3z"/>
<path id="XMLID_13_" class="st0" d="M166.2,18.3c-0.1-0.1-0.3-0.2-0.3-0.3c-0.1-0.1-0.1-0.3-0.2-0.5c0-0.2,0-0.3,0.1-0.5l1.4-4.1h10
	l-0.8,2.2h-7.4l-0.3,1h7.5l-0.8,2.4h-8.6C166.5,18.4,166.3,18.4,166.2,18.3z M167.8,10.9c0.1-0.2,0.2-0.4,0.3-0.5
	c0.1-0.2,0.3-0.3,0.5-0.5c0.2-0.1,0.4-0.2,0.6-0.3c0.2-0.1,0.4-0.1,0.6-0.1h8.6l-0.8,2.4h-10L167.8,10.9z"/>
<path id="XMLID_42_" class="st0" d="M176.4,18.4l1.9-5.6h2.5l-1.9,5.6H176.4z M182.1,10.1c0.4,0.4,0.9,0.9,1.5,1.7h-5l0.4-1.3
	c0-0.1,0.1-0.3,0.3-0.4c0.1-0.1,0.3-0.3,0.4-0.4c0.2-0.1,0.3-0.2,0.5-0.3c0.2-0.1,0.4-0.1,0.6-0.1h0.2c0.1,0,0.1,0,0.1,0
	C181.4,9.6,181.7,9.8,182.1,10.1z M184.1,17c-0.8-0.9-1.9-2.3-3.3-4.1h3.5c0.2,0.3,0.5,0.7,0.8,1c0.3,0.4,0.6,0.8,0.9,1.2l0.7-2.2
	h2.6l-1.5,4.4c0,0.1-0.1,0.3-0.3,0.4c-0.1,0.1-0.3,0.2-0.4,0.4c-0.2,0.1-0.3,0.2-0.6,0.3c-0.2,0.1-0.4,0.1-0.6,0.1h-0.2
	c0,0-0.1,0-0.1,0C185.4,18.3,184.9,17.9,184.1,17z M189.7,11.9h-2.6l0.8-2.4h2.6L189.7,11.9z"/>
<path id="XMLID_47_" class="st0" d="M191.6,9.5h10.6l-0.8,2.4h-10.6L191.6,9.5z M192.6,18.4l1.9-5.6h2.6l-1.9,5.6H192.6z"/>
<path id="XMLID_50_" class="st0" d="M201.3,18.3c-0.1-0.1-0.3-0.2-0.3-0.3c-0.1-0.1-0.1-0.3-0.2-0.5c0-0.2,0-0.3,0.1-0.5l1.4-4.1h10
	l-0.8,2.2H204l-0.3,1h7.5l-0.8,2.4h-8.6C201.6,18.4,201.4,18.4,201.3,18.3z M202.9,10.9c0.1-0.2,0.2-0.4,0.3-0.5
	c0.1-0.2,0.3-0.3,0.5-0.5c0.2-0.1,0.4-0.2,0.6-0.3c0.2-0.1,0.4-0.1,0.6-0.1h8.6l-0.8,2.4h-10L202.9,10.9z"/>
<path id="XMLID_53_" class="st0" d="M223.7,12.8l-0.2,0.7c-0.1,0.2-0.2,0.4-0.3,0.5c-0.1,0.2-0.3,0.3-0.5,0.5
	c-0.2,0.1-0.4,0.2-0.6,0.3c-0.2,0.1-0.4,0.1-0.5,0.1h-0.7l1.3,3.4h-2.7L218,15h-2.8l-1.2,3.4h-2.6l1.9-5.6H223.7z M214.5,9.5h8.9
	c0.2,0,0.3,0,0.5,0.1c0.1,0.1,0.3,0.2,0.3,0.3c0.1,0.1,0.1,0.3,0.2,0.5c0,0.2,0,0.3-0.1,0.5l-0.3,1h-10.3L214.5,9.5z"/>
<g id="XMLID_131_">
</g>
<g id="XMLID_132_">
</g>
<g id="XMLID_133_">
</g>
<g id="XMLID_134_">
</g>
<g id="XMLID_135_">
</g>
<g id="XMLID_136_">
</g>
<g id="XMLID_137_">
</g>
<g id="XMLID_138_">
</g>
<g id="XMLID_139_">
</g>
<g id="XMLID_140_">
</g>
<g id="XMLID_141_">
</g>
<g id="XMLID_142_">
</g>
<g id="XMLID_143_">
</g>
<g id="XMLID_144_">
</g>
<g id="XMLID_145_">
</g>
</svg>
