<svg width="380" height="51" viewBox="0 0 380 51" fill="none" xmlns="http://www.w3.org/2000/svg">
<path d="M71.1131 34V7.504H75.2891V34H71.1131ZM82.2225 34V7.504H86.5065L95.2905 23.056L98.0625 28.672H98.2425C98.0265 25.936 97.7025 22.732 97.7025 19.852V7.504H101.662V34H97.3785L88.5945 18.376L85.8225 12.832H85.6425C85.8585 15.568 86.1825 18.628 86.1825 21.508V34H82.2225ZM108.66 34V7.504H124.356V10.996H112.836V19.096H122.628V22.588H112.836V34H108.66ZM138.744 34.468C131.94 34.468 127.224 29.176 127.224 20.644C127.224 12.112 131.94 7 138.744 7C145.548 7 150.3 12.112 150.3 20.644C150.3 29.176 145.548 34.468 138.744 34.468ZM138.744 30.832C143.136 30.832 146.016 26.872 146.016 20.644C146.016 14.416 143.136 10.636 138.744 10.636C134.352 10.636 131.508 14.416 131.508 20.644C131.508 26.872 134.352 30.832 138.744 30.832ZM159.981 10.852V19.96H163.977C167.829 19.96 169.917 18.376 169.917 15.172C169.917 11.968 167.829 10.852 163.977 10.852H159.981ZM174.993 34H170.277L164.265 23.308H159.981V34H155.805V7.504H164.481C169.953 7.504 174.057 9.448 174.057 15.172C174.057 19.276 171.861 21.724 168.513 22.768L174.993 34ZM179.394 34V7.504H184.182L189.042 20.896C189.654 22.66 190.194 24.46 190.806 26.26H190.986C191.598 24.46 192.102 22.66 192.714 20.896L197.502 7.504H202.326V34H198.438V20.896C198.438 18.52 198.762 15.1 198.978 12.688H198.834L196.71 18.808L192.102 31.444H189.51L184.866 18.808L182.778 12.688H182.634C182.814 15.1 183.138 18.52 183.138 20.896V34H179.394ZM213.273 23.164H220.509L219.465 19.6C218.565 16.72 217.773 13.768 216.945 10.78H216.801C216.045 13.804 215.217 16.72 214.353 19.6L213.273 23.164ZM223.749 34L221.517 26.44H212.301L210.033 34H205.785L214.569 7.504H219.393L228.177 34H223.749ZM234.611 34V10.996H226.835V7.504H246.599V10.996H238.787V34H234.611ZM251.183 34V7.504H255.359V34H251.183ZM272.373 34.468C265.569 34.468 260.853 29.176 260.853 20.644C260.853 12.112 265.569 7 272.373 7C279.177 7 283.929 12.112 283.929 20.644C283.929 29.176 279.177 34.468 272.373 34.468ZM272.373 30.832C276.765 30.832 279.645 26.872 279.645 20.644C279.645 14.416 276.765 10.636 272.373 10.636C267.981 10.636 265.137 14.416 265.137 20.644C265.137 26.872 267.981 30.832 272.373 30.832ZM289.433 34V7.504H293.717L302.501 23.056L305.273 28.672H305.453C305.237 25.936 304.913 22.732 304.913 19.852V7.504H308.873V34H304.589L295.805 18.376L293.033 12.832H292.853C293.069 15.568 293.393 18.628 293.393 21.508V34H289.433Z" fill="black"/>
<rect x="141" y="47" width="100" height="4" fill="#737373"/>
</svg>
